<?xml version="1.0" encoding="utf-8"?>
<!-- Generator: Adobe Illustrator 25.2.0, SVG Export Plug-In . SVG Version: 6.00 Build 0)  -->
<svg version="1.1" id="Camada_1" xmlns="http://www.w3.org/2000/svg" xmlns:xlink="http://www.w3.org/1999/xlink" x="0px" y="0px"
	 viewBox="0 0 70.3 97.1" style="enable-background:new 0 0 70.3 97.1;" xml:space="preserve">
<style type="text/css">
	.st0{fill:#76A1E6;}
	.st1{opacity:0.6;fill:#45BBBB;}
	.st2{opacity:0.3;fill:#91FFEB;}
	.st3{opacity:0.4;fill:#91FFEB;}
	.st4{opacity:0.4;fill:#45BBBB;}
	.st5{opacity:0.5;fill:#45BBBB;}
	.st6{fill:#9AC80E;}
	.st7{opacity:0.6;fill:#CFFF42;}
	.st8{opacity:0.9;fill:#CFFF42;}
	.st9{fill:#91FFEB;}
	.st10{fill:#45BBBB;}
	.st11{opacity:0.9;fill:#64BBBB;}
	.st12{clip-path:url(#SVGID_1_);}
	.st13{fill:#F1EAE6;}
	.st14{fill:#FFC117;}
	.st15{fill:#D7B580;}
	.st16{opacity:0.5;fill:#FFC117;}
	.st17{opacity:0.3;fill:#FFF0B7;}
	.st18{clip-path:url(#SVGID_2_);}
	.st19{fill:#FFD733;}
	.st20{fill:#FFF0B7;}
</style>
<g id="_x31_4">
	<path class="st0" d="M66.1,85.4l-10.9-1c0.1-3.4-2-6.8-6.6-9.4c-8.8-5.1-23-5.1-31.7,0c-8.8,5.1-8.8,13.3,0,18.3
		c8.8,5.1,23,5.1,31.7,0c0.6-0.3,1.2-0.7,1.7-1.1c5.7,1.7,10.3,2.5,12.2,1c2.1-1.6-2.7-3.9-7.4-5.9c-0.2-0.1-0.4-0.1-0.6-0.2
		c0-0.1,0.1-0.2,0.2-0.4l11.2,1.1c0.7,0.1,1.3-0.4,1.3-1.1C67.2,86.1,66.8,85.5,66.1,85.4z"/>
	<ellipse class="st1" cx="30.1" cy="80.8" rx="14" ry="8.1"/>
	<g>
		<path class="st2" d="M38.3,75c-4.6-2.6-12-2.6-16.6,0c-1.4,0.8-2.3,1.7-2.9,2.7c-1.3,2.3-0.3,5,2.9,6.9c4.6,2.6,12,2.6,16.6,0
			c3.4-2,4.3-4.9,2.6-7.3C40.3,76.4,39.5,75.7,38.3,75z"/>
		<path class="st3" d="M36.2,75.4c-3.4-2-9-2-12.4,0c-3.4,2-3.4,5.2,0,7.1c3.4,2,9,2,12.4,0C39.7,80.6,39.7,77.4,36.2,75.4z"/>
		<ellipse class="st4" cx="30.1" cy="78.1" rx="5.8" ry="3.3"/>
	</g>
	<g>
		<path class="st5" d="M42,13.8c-3.9-1-8-1.5-12.1-1.5c-5.7,0-11.4,1-16.3,3c-5.3,2.1-9.2,5-11.4,8.6c-2.3,3.8-2.4,8.3-0.3,12.2
			c1.8,3.2,4.6,5.3,7.3,7.5c0.9,0.7,1.8,1.4,2.7,2.2c1.5,1.3,3,2.6,4.6,3.8c1.3,1.1,2.7,2.2,4,3.3c0.8,0.7,1.6,1.3,2.4,2
			c0.6,0.5,1.3,1,1.9,1.5c0.4,0.4,0.9,0.8,1.3,1.1c0.3,0.2,0.6,0.5,0.8,0.6c0.3,0.3,0.6,0.6,1,0.9l0,17.7c0,0.4,0.2,0.7,0.7,1
			c0.9,0.5,2.4,0.5,3.3,0c0.5-0.3,0.7-0.6,0.7-1l0-17.7c0.3-0.3,0.6-0.6,0.9-0.8l0.4-0.3c0.3-0.2,0.5-0.4,0.7-0.6
			c0.3-0.2,0.5-0.4,0.8-0.6c0.4-0.3,0.7-0.6,1.1-0.9c1.3-1.1,2.6-2.2,3.9-3.2c1.5-1.2,3.1-2.5,4.7-3.9c0.7-0.6,1.3-1.1,2-1.7
			c0.8-0.6,1.5-1.2,2.3-1.9c0.7-0.6,1.5-1.2,2.3-1.9c3.5-2.8,7.4-5.9,8.3-11.1C61.2,22.4,51.1,16.2,42,13.8z"/>
		<path class="st6" d="M35,56.3c2.8-2.4,5.8-4.6,8.6-7.1c1.4-1.2,2.9-2.3,4.3-3.5c3.9-3.4,9-6.4,10-11.9c1.5-9-9.1-14.3-16.2-16.2
			c-8.8-2.3-18.7-2-27.2,1.4c-4,1.6-8.1,4.1-10.5,7.9c-2,3.2-2.1,7-0.3,10.3c2.1,3.9,6.3,6.3,9.5,9.1c2.8,2.4,5.8,4.7,8.6,7.1
			c1.4,1.2,2.8,2.3,4.2,3.5c0.7,0.6,1.4,1.2,2.1,1.8c1.1,1,2.9,1,4,0c0.4-0.3,0.7-0.6,1.1-0.9C33.7,57.3,34.4,56.8,35,56.3z"/>
		<ellipse class="st7" cx="30.1" cy="32.3" rx="27" ry="15.6"/>
		<path class="st8" d="M49.1,39.9c0.1,0.1-0.5,0.7-1.8,1.6c-1.3,0.9-3.2,2-5.9,2.9C36.2,46.2,28.3,47.2,20,45
			c-4.1-1.1-7.9-2.9-10.5-5.7c-1.3-1.3-2.3-2.9-2.8-4.6c-0.5-1.6-0.5-3.3-0.1-4.7c0.9-2.8,2.6-4.5,3.8-5.4c0.6-0.5,1.1-0.8,1.5-1
			c0.4-0.2,0.5-0.3,0.6-0.3c0,0-0.1,0.2-0.4,0.5c-0.3,0.3-0.8,0.6-1.3,1.2c-1.1,1-2.5,2.7-3.2,5.2c-0.3,1.3-0.2,2.7,0.2,4.1
			c0.5,1.4,1.4,2.8,2.6,4c2.5,2.4,6.1,4.2,10,5.2c3.9,1,7.9,1.4,11.4,1.2c3.6-0.1,6.7-0.7,9.3-1.5C46.3,41.9,49,39.7,49.1,39.9z
			 M53.7,31c-0.1-1.3-0.6-2.6-1.4-3.8c-0.8-1.3-1.8-2.4-3.1-3.4c-1.3-1-2.7-1.9-4.3-2.7c-1.6-0.7-3.3-1.4-5.1-1.8
			c-7.2-1.9-14-1.2-18.6,0c-2.3,0.6-4.1,1.4-5.3,2c-1.2,0.7-1.8,1.1-1.7,1.2c0,0.1,0.7-0.2,2-0.7c1.2-0.4,3-1.1,5.3-1.5
			c4.5-0.9,11.2-1.4,18,0.4c1.7,0.4,3.3,1,4.9,1.7c1.5,0.7,2.9,1.5,4.1,2.4c2.4,1.8,4,4.2,4.3,6.4c0.2,1.1,0.1,2.1-0.1,3
			c-0.2,0.9-0.5,1.6-0.8,2.2c-0.2,0.3-0.3,0.5-0.4,0.8c-0.1,0.2-0.2,0.4-0.3,0.5c-0.2,0.3-0.3,0.5-0.2,0.5c0,0,0.2-0.1,0.4-0.3
			c0.1-0.1,0.3-0.3,0.5-0.5c0.2-0.2,0.3-0.5,0.5-0.7c0.4-0.6,0.8-1.3,1.1-2.2C53.7,33.4,53.8,32.3,53.7,31z"/>
		<path class="st8" d="M22,40.3c1.9,0.5,4.1,1,6.7,1c2.5,0.1,5.4-0.1,8.2-0.9c2.8-0.8,5.4-2,7.2-3.7c0.9-0.9,1.5-1.8,1.9-2.9
			c0.4-1,0.4-2,0.2-2.9c-0.5-1.8-1.5-3-2.3-3.8c-0.4-0.4-0.7-0.6-0.9-0.9c-0.2-0.2-0.3-0.3-0.3-0.3c0,0,0.2,0,0.4,0.2
			c0.2,0.2,0.6,0.4,1.1,0.7c0.9,0.7,2.1,1.9,2.7,3.9c0.3,1,0.3,2.2-0.1,3.4c-0.4,1.2-1.1,2.3-2,3.3c-1.9,1.9-4.6,3.3-7.6,4.1
			c-5.9,1.6-11.6,0.9-15.4-0.4c-1.9-0.7-3.3-1.5-4.2-2.1c-0.9-0.6-1.3-1.1-1.3-1.2C16.4,37.6,18.3,39.2,22,40.3z M13.2,33.7
			c0.2,0.7,0.5,1.2,0.8,1.6c0.1,0.2,0.3,0.4,0.4,0.5c0.1,0.1,0.2,0.2,0.3,0.3c0.2,0.2,0.3,0.3,0.3,0.2s0-0.1-0.2-0.4
			c-0.1-0.1-0.1-0.2-0.2-0.4c-0.1-0.2-0.2-0.3-0.3-0.5c-0.2-0.4-0.4-0.9-0.6-1.6c-0.1-0.6-0.2-1.4-0.1-2.2c0.3-1.6,1.4-3.3,3.1-4.6
			c0.9-0.7,1.9-1.2,2.9-1.7c1.1-0.5,2.2-0.9,3.5-1.2c4.9-1.3,9.7-1,13-0.3c1.7,0.3,2.9,0.8,3.8,1.1c0.9,0.4,1.4,0.5,1.4,0.5
			c0-0.1-0.4-0.4-1.2-0.8c-0.9-0.4-2.1-1-3.8-1.4c-3.3-0.9-8.2-1.3-13.4,0c-1.3,0.3-2.5,0.8-3.6,1.3c-1.1,0.6-2.2,1.2-3.1,1.9
			c-0.9,0.7-1.7,1.6-2.2,2.5c-0.6,0.9-0.9,1.9-1,2.8C12.9,32.2,13.1,33.1,13.2,33.7z"/>
		<path class="st5" d="M30.1,48.6c-7.9,0-15.4-1.9-21-5.2c0.1,0,0.1,0.1,0.2,0.1c0.9,0.7,1.8,1.4,2.7,2.2c1.5,1.3,3,2.6,4.6,3.8
			c1.3,1.1,2.7,2.2,4,3.3c0.8,0.7,1.6,1.3,2.4,2c0.6,0.5,1.3,1,1.9,1.5c0.4,0.4,0.9,0.8,1.3,1.1c0.3,0.2,0.6,0.5,0.8,0.6
			c0.9,0.8,2.1,2,3.3,2c1.2,0,2.4-1.2,3.2-1.9l0.4-0.3c0.3-0.2,0.5-0.4,0.7-0.6c0.3-0.2,0.5-0.4,0.8-0.6c0.4-0.3,0.7-0.6,1.1-0.9
			c1.3-1.1,2.6-2.2,3.9-3.2c1.5-1.2,3.1-2.5,4.7-3.9c0.7-0.6,1.3-1.1,2-1.7c0.8-0.6,1.5-1.2,2.3-1.9c0.6-0.5,1.2-1,1.9-1.6
			C45.3,46.8,37.9,48.6,30.1,48.6z"/>
		<path class="st9" d="M51.2,17.2c-5.7-3.4-13.2-5.3-21.2-5.3c-8,0-15.5,1.9-21.2,5.3C3.2,20.6,0,25.3,0,30.2s3.2,9.6,8.9,13.1
			c5.7,3.4,13.2,5.3,21.2,5.3c8,0,15.5-1.9,21.2-5.3c5.7-3.5,8.9-8.1,8.9-13.1S56.9,20.6,51.2,17.2z M50.7,42.5
			c-5.5,3.3-12.9,5.2-20.7,5.2c-7.8,0-15.2-1.8-20.7-5.2c-5.4-3.3-8.4-7.7-8.4-12.3s3-9,8.4-12.3c5.5-3.3,12.9-5.2,20.7-5.2
			c7.8,0,15.2,1.8,20.7,5.2c5.4,3.3,8.4,7.7,8.4,12.3S56.2,39.2,50.7,42.5z"/>
		<path class="st10" d="M9.4,42.5c1.9,1.2,4.1,2.2,6.5,3l-0.7,0.7c-2.2-0.8-4.4-1.7-6.2-2.9c-0.8-0.5-1.5-0.9-2.1-1.4l0.7-0.7
			C8,41.7,8.7,42.1,9.4,42.5z M1.1,32c-0.1-0.6-0.2-1.2-0.2-1.7c0-4.6,3-9,8.4-12.3c2.7-1.7,5.9-2.9,9.4-3.8
			c0.4-0.4,0.8-0.8,1.2-1.2c-4.1,0.9-7.9,2.3-11.1,4.3C3.2,20.6,0,25.3,0,30.2c0,0.9,0.1,1.7,0.3,2.5C0.6,32.5,0.8,32.3,1.1,32z
			 M36.4,12.3l-0.8,0.8c3.6,0.4,7.1,1.3,10.2,2.5l0.7-0.7C43.4,13.6,40,12.7,36.4,12.3z M25.5,47.5l-0.9,0.9
			c1.8,0.2,3.6,0.3,5.4,0.3c3.8,0,7.5-0.4,11-1.3l1.3-1.3c-3.8,1.1-8,1.7-12.3,1.7C28.5,47.7,27,47.6,25.5,47.5z M53.9,19l-0.7,0.7
			c3.5,2.8,5.6,6.1,5.9,9.6l0.8-0.8C59.4,25,57.3,21.8,53.9,19z"/>
	</g>
	<path class="st9" d="M28.1,59.8v17.6c0.1,0.1,0.2,0.2,0.3,0.2c0.5,0.3,1.1,0.4,1.7,0.4V60.8C30.1,60.8,28.9,60.8,28.1,59.8z"/>
	<path class="st11" d="M40,85.6c-5.5,3.2-14.4,3.2-19.9,0c-2.5-1.5-3.9-3.3-4.1-5.3c-0.2,2.2,1.1,4.5,4.1,6.2
		c5.5,3.2,14.4,3.2,19.9,0c2.9-1.7,4.3-4,4.1-6.2C43.9,82.3,42.5,84.2,40,85.6z"/>
	<path class="st9" d="M44,80.4c0,0,0,0.1-0.1,0.4c-0.1,0.2-0.2,0.6-0.4,1c-0.2,0.4-0.5,0.9-0.9,1.3c-0.4,0.5-1,0.9-1.6,1.4
		c-0.3,0.2-0.7,0.4-1,0.6c-0.3,0.2-0.8,0.4-1.2,0.6c-0.4,0.2-0.8,0.3-1.3,0.5c-0.5,0.1-0.9,0.3-1.4,0.4c-0.9,0.2-1.9,0.5-2.9,0.6
		c-1,0.1-2.1,0.2-3.1,0.2c-1,0-2.1,0-3.1-0.2c-1-0.1-2-0.3-2.9-0.6c-0.9-0.3-1.8-0.5-2.7-0.9c-0.8-0.4-1.6-0.7-2.2-1.2
		c-0.6-0.4-1.2-0.9-1.6-1.4c-0.4-0.5-0.7-0.9-0.9-1.3c-0.2-0.4-0.3-0.7-0.4-1c-0.1-0.2-0.1-0.4-0.1-0.4l-0.1,0c0,0,0,0.1,0.1,0.4
		c0,0.2,0.1,0.6,0.3,1.1c0.3,0.9,1.2,2,2.4,3c0.6,0.5,1.4,0.9,2.2,1.4c0.4,0.2,0.9,0.4,1.3,0.6c0.5,0.2,0.9,0.3,1.4,0.5
		c1,0.3,2,0.5,3.1,0.6c1.1,0.2,2.1,0.2,3.2,0.2c1.1,0,2.2-0.1,3.2-0.2c1.1-0.1,2.1-0.4,3.1-0.6c0.5-0.1,1-0.3,1.4-0.5
		c0.5-0.2,0.9-0.4,1.3-0.6c0.8-0.4,1.6-0.9,2.2-1.4c1.3-1,2.1-2.1,2.4-3c0.2-0.4,0.3-0.8,0.3-1.1C44.1,80.5,44.1,80.4,44,80.4
		L44,80.4z"/>
	<path class="st6" d="M38.2,30.8c0.9,0.5,0.9,1.4,0,1.9c-0.9,0.5-2.4,0.5-3.3,0c-0.9-0.5-0.9-1.4,0-1.9
		C35.8,30.3,37.3,30.3,38.2,30.8z"/>
	<g>
		<defs>
			<path id="SVGID_5_" d="M58,1.6L54.7,0L35.3,30.4c-0.6,0.5-0.5,1.1,0.2,1.5c0.8,0.5,2.1,0.5,2.9,0c0.5-0.3,0.7-0.7,0.6-1L57.3,4.8
				L58,1.6z"/>
		</defs>
		<clipPath id="SVGID_1_">
			<use xlink:href="#SVGID_5_"  style="overflow:visible;"/>
		</clipPath>
		<g class="st12">
			<path class="st13" d="M56.2,1.3c-0.6-0.4-1.3-0.2-1.7,0.4L32.8,34.9c-0.4,0.6-0.2,1.3,0.4,1.7c0.6,0.4,1.3,0.2,1.7-0.4L56.6,3
				C56.9,2.4,56.8,1.6,56.2,1.3z"/>
			<path class="st14" d="M55.6,2.7L56.1,3L34,36.8c-0.2,0-0.4,0-0.6,0L55.6,2.7z M32.7,35.9c0.1,0.2,0.1,0.3,0.3,0.5l22.2-34
				l-0.4-0.3L32.7,35.9z"/>
			<path class="st15" d="M56.4,2.9c-0.3,0.5-1,0.7-1.5,0.4s-0.6-1-0.3-1.5c0.3-0.5,1-0.7,1.5-0.4C56.6,1.7,56.8,2.4,56.4,2.9z"/>
		</g>
	</g>
	<g>
		<path class="st14" d="M70.3,46.9c0-7.8-6.1-17.8-13.9-22.3c-4.1-2.3-7.7-2.7-10.3-1.5c-0.7,0.3-1.4,0.7-2,1
			c-2.4,1.1-3.9,3.7-3.9,7.5c0,3.4,1.2,7.3,3.2,10.9c0,0,9.4-3,9.3-3.2c0.2,0.3,5-0.7,3.9,0.5c-2,2.1-8.6,7-10.1,7.3
			c2.2,2.8,4.9,5.2,7.8,6.8c4.1,2.3,7.7,2.7,10.3,1.5c0.7-0.3,1.5-0.8,2.2-1.3C69.1,52.4,70.3,50.7,70.3,46.9z"/>
		<g>
			<path class="st14" d="M50.9,45c0.5-0.4,0.9-0.8,1.3-1.2l-0.1-0.2c-2.3,1.8-4.8,3.4-5.6,3.5c0.2,0.2,0.4,0.5,0.6,0.7
				C48.4,46.9,49.7,46,50.9,45z"/>
			<path class="st16" d="M59.7,54l-2.6-3.5c-0.5,0.4-1,0.8-1.5,1.2c-0.7,0.6-1.5,1.1-2.3,1.6c0.3,0.2,0.6,0.4,1,0.6
				c4.1,2.3,7.7,2.7,10.3,1.5c0.7-0.3,1.5-0.8,2.2-1.3c2.1-1.6,3.3-3.2,3.5-6.2L59.7,54z"/>
		</g>
		<path class="st17" d="M56.7,46.4l12.1-7c-2.3-5.9-6.9-11.7-12.4-14.8c-0.7-0.4-1.4-0.8-2.1-1l-10,5.8L56.7,46.4z"/>
		<path class="st17" d="M59.5,41.2l8-4.6c-2.4-4.6-6.2-8.9-10.5-11.6l-9.6,5.5C47.4,31.8,59.5,41.2,59.5,41.2z"/>
		<g>
			<defs>
				<path id="SVGID_7_" d="M54.3,25.7c-7.8-4.5-14.1-1.8-14.1,6c0,3.4,0.3,11.5,4.7,13.6c4.2-1.5,7.4-3.3,9.8-5.7
					c0.2,0.2,0.5,0.4,0.8,0.5c-1.2,1.2-2.6,2.3-4.3,3.3c-0.1,0.1-0.2,0.1-0.3,0.2c0,0,0,0,0,0c-0.7,0.5-1.3,1-1.9,1.6
					c-0.7,0.6-1.5,1.3-2.3,1.9c-0.1,0.1-0.1,0.1-0.2,0.2c2.2,2.8,4.9,5.2,7.8,6.8c7.8,4.5,14.1,1.8,14.1-6S62.1,30.2,54.3,25.7z"/>
			</defs>
			<clipPath id="SVGID_2_">
				<use xlink:href="#SVGID_7_"  style="overflow:visible;"/>
			</clipPath>
			<g class="st18">
				<path class="st19" d="M68.2,47.8c0,7.7-6.2,10.3-13.9,5.9S40.4,39.5,40.4,31.8c0-7.7,6.2-10.3,13.9-5.9S68.2,40.2,68.2,47.8z"/>
				<path class="st14" d="M54.3,25.7c-7.8-4.5-14.1-1.8-14.1,6S46.5,49.5,54.3,54s14.1,1.8,14.1-6S62.1,30.2,54.3,25.7z M54.3,53.3
					C46.9,49,40.8,39.5,40.8,32s6-10,13.5-5.7c7.4,4.3,13.5,13.8,13.5,21.3C67.8,55,61.8,57.6,54.3,53.3z"/>
				<path class="st20" d="M67,47.1c0,7-5.7,9.4-12.7,5.4c-7-4-12.7-13-12.7-20c0-7,5.7-9.4,12.7-5.4C61.3,31.2,67,40.1,67,47.1z"/>
				<path class="st19" d="M59.4,32.3c0.7,1-3.8,7.2-4.7,6.6C54,38.6,51,27.7,51.6,27.1C52.1,26.6,57.6,29.8,59.4,32.3z"/>
				<path class="st19" d="M49.2,47.6c-0.7-0.8-1.3-1.6-2-2.5c-1.3-1.9,0.7-2.2,1.4-2.6c0.8-0.4,1.8-0.7,2.7-1c0.7-0.3,2-0.7,2.3-0.8
					c0.8-0.2,1.5,2.8,1.7,3.6c1.3,4.6,1.9,8.6,1.4,8.6c-0.4,0-2.1-0.6-4.7-2.5C51.1,49.5,50.1,48.6,49.2,47.6z"/>
				<path class="st19" d="M43,33c0.3-0.6,10.6,5.5,10.8,6.6c0.1,0.3-0.1,0.5-0.3,0.7c-0.5,0.3-7.4,1.8-8.5,1
					C43.9,40.5,42.1,34.7,43,33z"/>
				<path class="st19" d="M65.7,45.1c-0.2,0.8-10.5-4.1-10.1-5.5c0.2-0.6,5-5.7,6-4.7C64.1,37.4,66.2,42.8,65.7,45.1z"/>
				<path class="st19" d="M49.5,26.6c0.1,0,0.1,0.1,0.2,0.2c0.5,0.7,4.1,11.3,3.7,11.4c-0.2,0.1-2.2-1.5-4.5-2.9
					c-2.6-1.6-5.3-3.1-5.4-3.6C43.3,28,47.2,25.5,49.5,26.6z"/>
				<path class="st19" d="M60.5,53.4c-0.1,0-0.1-0.1-0.2-0.2c-0.5-0.6-1-1.7-1.3-2.4c-0.6-1.3-1.2-2.6-1.8-4
					c-0.6-1.3-1.1-2.6-1.7-3.9c-0.2-0.4-0.6-1.2-0.6-1.6c-0.1-0.8,0.7-0.3,1.2,0.1c0.5,0.4,1.1,0.8,1.6,1.1c1.2,0.7,2.3,1.3,3.5,1.9
					c0.6,0.3,4,1.7,4.2,2.8C66.2,51,62.8,54.2,60.5,53.4z"/>
			</g>
		</g>
	</g>
</g>
</svg>
