<?xml version="1.0" encoding="utf-8"?>
<!-- Generator: Adobe Illustrator 25.2.0, SVG Export Plug-In . SVG Version: 6.00 Build 0)  -->
<svg version="1.1" id="Camada_1" xmlns="http://www.w3.org/2000/svg" xmlns:xlink="http://www.w3.org/1999/xlink" x="0px" y="0px"
	 viewBox="0 0 51.6 56.4" style="enable-background:new 0 0 51.6 56.4;" xml:space="preserve">
<style type="text/css">
	.st0{fill:#76A1E6;}
	.st1{fill:url(#SVGID_1_);}
	.st2{fill:#00B1E6;}
	.st3{fill:#F6FAFA;}
	.st4{opacity:0.2;fill:#B8CDD1;}
	.st5{fill:#BDD3D7;}
	.st6{opacity:0.2;fill:#DDEFF3;}
</style>
<g id="_x35_">
	<ellipse class="st0" cx="30.2" cy="44.1" rx="21.4" ry="12.3"/>
	<g>
		<radialGradient id="SVGID_1_" cx="16.4202" cy="12.3151" r="42.4959" gradientUnits="userSpaceOnUse">
			<stop  offset="0" style="stop-color:#FAFAFA"/>
			<stop  offset="0.5862" style="stop-color:#D2E8ED"/>
			<stop  offset="0.6809" style="stop-color:#CDE2E7"/>
			<stop  offset="0.8043" style="stop-color:#BED2D7"/>
			<stop  offset="0.9429" style="stop-color:#A7B8BC"/>
			<stop  offset="1" style="stop-color:#9BABAF"/>
		</radialGradient>
		<circle class="st1" cx="25.8" cy="25.8" r="25.8"/>
		<g>
			<path class="st2" d="M51.6,25.8c0,2.2-0.3,4.4-0.8,6.4c-4.6-11-22.5-21.3-33.8-19.8c1.4,14.7,11,29.3,23.3,34.7
				c-4.1,2.8-9.1,4.4-14.5,4.4c-3.7,0-7.1-0.8-10.3-2.1c-6.3-9.2-4.9-28.7,1.2-37C8,18.3,2.1,29.1,3,37.8c-1.9-3.6-3-7.7-3-12
				c0-2.9,0.5-5.6,1.4-8.2c3-3.4,10.4-5.9,15.4-5.4c-3.1-5-3.6-8-3.6-8.8c3.7-2.1,8-3.3,12.6-3.3c0.8,0,1.5,0,2.3,0.1
				c-3.1,1.2-8.9,4-11.1,12c3.5-2.9,18.6-7.2,28.2-3.2c0,0,0,0,0,0C49.2,13.4,51.6,19.3,51.6,25.8z"/>
			<path class="st3" d="M18.9,13.9c-1,1.4-2.8,1.8-3.9,0.9c-1.2-0.9-1.3-2.6-0.3-4c1-1.4,2.8-1.8,3.9-0.9
				C19.7,10.8,19.9,12.6,18.9,13.9z"/>
			<path class="st4" d="M17.9,13.3c-0.7,0.9-1.8,1.2-2.6,0.6c-0.8-0.6-0.9-1.7-0.2-2.6c0.7-0.9,1.8-1.2,2.6-0.6
				C18.5,11.3,18.6,12.4,17.9,13.3z"/>
			<path class="st5" d="M17.7,10.7c-0.8-0.6-1.9-0.3-2.6,0.6c-0.7,0.9-0.6,2.1,0.2,2.6c0.8,0.6,1.9,0.3,2.6-0.6
				C18.6,12.4,18.5,11.3,17.7,10.7z M17.9,13.4c-0.6,0.8-1.6,1-2.3,0.5c-0.7-0.5-0.8-1.5-0.2-2.3c0.6-0.8,1.6-1,2.3-0.5
				C18.4,11.5,18.5,12.6,17.9,13.4z"/>
			<path class="st5" d="M19.6,11.3c-0.2-0.8-0.9-1.8-2-1.9c-1.1-0.1-2.2,0.5-2.9,1.4c-0.7,0.9-0.9,2.2-0.5,3.2
				c0.4,1,1.5,1.5,2.4,1.4c0.9-0.1,1.5-0.5,1.9-0.8c0.4-0.3,0.5-0.6,0.5-0.6s0.2-0.2,0.4-0.7C19.5,12.8,19.7,12.1,19.6,11.3z
				 M19.2,13.2c-0.2,0.4-0.4,0.7-0.4,0.7s-0.2,0.2-0.5,0.5c-0.4,0.3-1,0.7-1.8,0.7c-0.4,0-0.8-0.1-1.2-0.3c-0.4-0.2-0.8-0.6-1-1
				c-0.4-0.9-0.2-2.1,0.4-3c0.6-0.9,1.7-1.4,2.8-1.3c1,0.1,1.8,0.9,1.9,1.7C19.6,12.1,19.4,12.8,19.2,13.2z"/>
		</g>
	</g>
	<g>
		
			<ellipse transform="matrix(0.8645 -0.5026 0.5026 0.8645 -7.5583 14.5241)" class="st6" cx="23.2" cy="21.3" rx="23.1" ry="20.1"/>
		
			<ellipse transform="matrix(0.8645 -0.5026 0.5026 0.8645 -6.7573 13.6094)" class="st6" cx="21.9" cy="19.3" rx="20.1" ry="17.5"/>
		<ellipse transform="matrix(0.8645 -0.5026 0.5026 0.8645 -5.888 12.5099)" class="st6" cx="20.3" cy="17.2" rx="16.5" ry="14.3"/>
		
			<ellipse transform="matrix(0.8645 -0.5026 0.5026 0.8645 -4.6721 11.1058)" class="st6" cx="18.3" cy="14.2" rx="11.9" ry="10.3"/>
		<path class="st6" d="M24.2,8.2c2,3.4,0.4,8-3.5,10.3c-3.9,2.3-8.7,1.4-10.7-2c-2-3.4-0.4-8,3.5-10.3C17.5,3.9,22.2,4.8,24.2,8.2z"
			/>
	</g>
</g>
</svg>
