<?xml version="1.0" encoding="utf-8"?>
<!-- Generator: Adobe Illustrator 25.2.0, SVG Export Plug-In . SVG Version: 6.00 Build 0)  -->
<svg version="1.1" id="Camada_1" xmlns="http://www.w3.org/2000/svg" xmlns:xlink="http://www.w3.org/1999/xlink" x="0px" y="0px"
	 viewBox="0 0 61.1 79.9" style="enable-background:new 0 0 61.1 79.9;" xml:space="preserve">
<style type="text/css">
	.st0{fill:#76A1E6;}
	.st1{fill:#2D2D2D;}
	.st2{opacity:0.5;clip-path:url(#SVGID_3_);fill:#D3EDF0;}
	.st3{opacity:0.2;clip-path:url(#SVGID_3_);fill:#D3EDF0;}
	.st4{opacity:0.7;clip-path:url(#SVGID_3_);fill:#D3EDF0;}
	.st5{fill:#D2E8ED;}
	.st6{fill:#00B3CF;}
	.st7{fill:#00BFE0;}
	.st8{fill:#00D8FF;}
	.st9{fill:#00E6FF;}
	.st10{fill:#FAFAFA;}
	.st11{fill:#ECF8FB;}
	.st12{opacity:0.3;clip-path:url(#SVGID_4_);fill:#D3EDF0;}
	.st13{opacity:0.2;clip-path:url(#SVGID_4_);fill:#D3EDF0;}
	.st14{opacity:0.7;clip-path:url(#SVGID_4_);fill:#D3EDF0;}
</style>
<g id="_x32_">
	<g>
		<g>
			<g>
				<defs>
					<path id="SVGID_13_" d="M30.5,17.5c-0.4,0-0.8,0.4-0.8,0.8V63c0,0.4,1.6,0.4,1.6,0V18.3C31.3,17.8,31,17.5,30.5,17.5z"/>
				</defs>
				<clipPath id="SVGID_1_">
					<use xlink:href="#SVGID_13_"  style="overflow:visible;"/>
				</clipPath>
			</g>
		</g>
		<g>
			<g>
				<defs>
					<path id="SVGID_15_" d="M30.5,0.6c-0.2,0-0.4,0.2-0.4,0.4l-0.4,2.4c0,0.4,1.6,0.4,1.6,0L30.9,1C30.9,0.7,30.7,0.6,30.5,0.6z"/>
				</defs>
				<clipPath id="SVGID_2_">
					<use xlink:href="#SVGID_15_"  style="overflow:visible;"/>
				</clipPath>
			</g>
		</g>
	</g>
	<g>
		<path class="st0" d="M43.3,51.9H23.9c-0.3,0-0.5,0.1-0.7,0.2l-13.2,7.6c-0.5,0.3-0.7,0.7-0.7,1.3v9.9c0,0.5,0.3,1,0.7,1.3
			l13.2,7.6c0.2,0.1,0.5,0.2,0.7,0.2h19.3c0.3,0,0.5-0.1,0.7-0.2l13.2-7.6c0.5-0.3,0.7-0.7,0.7-1.3v-9.9c0-0.5-0.3-1-0.7-1.3
			L44,52.1C43.8,51.9,43.5,51.9,43.3,51.9z"/>
		<g>
			<path class="st1" d="M31.8,62.2c-0.7-0.4-1.8-0.4-2.5,0c-0.7,0.4-0.7,1,0,1.4c0.7,0.4,1.8,0.4,2.5,0
				C32.5,63.3,32.5,62.6,31.8,62.2z"/>
			<g>
				<g>
					<defs>
						<path id="SVGID_17_" d="M30.5,17.5c-0.4,0-0.8,0.4-0.8,0.8V63c0,0.4,1.6,0.4,1.6,0V18.3C31.3,17.8,31,17.5,30.5,17.5z"/>
					</defs>
					<use xlink:href="#SVGID_17_"  style="overflow:visible;fill:#526163;"/>
					<clipPath id="SVGID_3_">
						<use xlink:href="#SVGID_17_"  style="overflow:visible;"/>
					</clipPath>
					<rect x="29.7" y="31.1" class="st2" width="0.5" height="33.1"/>
					<rect x="30.7" y="31.1" class="st3" width="0.5" height="33.1"/>
					<rect x="30" y="31.1" class="st4" width="0.3" height="33.1"/>
				</g>
			</g>
			<g>
				<path class="st5" d="M26.9,33.5l-9,1.7v1.9c0,0.8,0.7,1.5,1.5,1.5h22.4c0.8,0,1.5-0.7,1.5-1.5v-1.9L26.9,33.5z"/>
				<path class="st6" d="M51,29.1l-7.8,6.1v1.9c0,0.8,0.7,1.1,1.5,0.6l15-8.6c0.8-0.5,1.5-1.5,1.5-2.3v-1.9L51,29.1z"/>
				<path class="st7" d="M8.9,28.8L0,24.9v1.9c0,0.8,0.7,1.8,1.5,2.3l15,8.6c0.8,0.5,1.5,0.2,1.5-0.6v-1.9L8.9,28.8z"/>
				<g>
					<polygon class="st6" points="43.2,0 61.1,10.3 30.5,3.2 					"/>
					<polygon class="st8" points="0,24.9 17.9,35.3 30.5,3.2 					"/>
					<polygon class="st7" points="61.1,24.9 51.6,30.4 43.2,35.3 30.5,3.2 					"/>
					<polygon class="st9" points="17.9,0 0,10.3 30.5,3.2 					"/>
					<polygon class="st5" points="61.1,10.3 61.1,24.9 30.5,3.2 					"/>
					<polygon class="st10" points="0,10.3 0,24.9 30.5,3.2 					"/>
					<polygon class="st11" points="43.2,35.3 17.9,35.3 30.5,3.2 					"/>
					<polygon class="st11" points="43.2,0 17.9,0 30.5,3.2 					"/>
					<ellipse class="st10" cx="30.5" cy="3.2" rx="1.4" ry="0.8"/>
				</g>
			</g>
			<g>
				<g>
					<defs>
						<path id="SVGID_19_" d="M30.5,0.6c-0.2,0-0.4,0.2-0.4,0.4l-0.4,2.4c0,0.4,1.6,0.4,1.6,0L30.9,1C30.9,0.7,30.7,0.6,30.5,0.6z"
							/>
					</defs>
					<use xlink:href="#SVGID_19_"  style="overflow:visible;fill:#526163;"/>
					<clipPath id="SVGID_4_">
						<use xlink:href="#SVGID_19_"  style="overflow:visible;"/>
					</clipPath>
					<polygon class="st12" points="30.3,0.5 29.8,3.8 30.3,3.8 30.4,0.5 					"/>
					<polygon class="st13" points="30.7,0.4 30.8,3.8 31.3,3.8 30.8,0.5 					"/>
					<polygon class="st14" points="30.4,0.4 30,3.7 30.4,3.8 30.5,0.5 					"/>
				</g>
			</g>
		</g>
	</g>
	<g>
		<g>
			<g>
				<defs>
					<path id="SVGID_21_" d="M30.5,17.5c-0.4,0-0.8,0.4-0.8,0.8V63c0,0.4,1.6,0.4,1.6,0V18.3C31.3,17.8,31,17.5,30.5,17.5z"/>
				</defs>
				<clipPath id="SVGID_5_">
					<use xlink:href="#SVGID_21_"  style="overflow:visible;"/>
				</clipPath>
			</g>
		</g>
		<g>
			<g>
				<defs>
					<path id="SVGID_23_" d="M30.5,0.6c-0.2,0-0.4,0.2-0.4,0.4l-0.4,2.4c0,0.4,1.6,0.4,1.6,0L30.9,1C30.9,0.7,30.7,0.6,30.5,0.6z"/>
				</defs>
				<clipPath id="SVGID_6_">
					<use xlink:href="#SVGID_23_"  style="overflow:visible;"/>
				</clipPath>
			</g>
		</g>
	</g>
</g>
</svg>
