<?xml version="1.0" encoding="utf-8"?>
<!-- Generator: Adobe Illustrator 25.2.0, SVG Export Plug-In . SVG Version: 6.00 Build 0)  -->
<svg version="1.1" id="Camada_1" xmlns="http://www.w3.org/2000/svg" xmlns:xlink="http://www.w3.org/1999/xlink" x="0px" y="0px"
	 viewBox="0 0 77.8 84.3" style="enable-background:new 0 0 77.8 84.3;" xml:space="preserve">
<style type="text/css">
	.st0{fill:#76A1E6;}
	.st1{fill:#FFD1A4;}
	.st2{fill:#CE9565;}
	.st3{opacity:0.5;fill:#D09C53;}
	.st4{fill:#E1EDEE;}
	.st5{fill:#E0A973;}
	.st6{fill:#F88B00;}
	.st7{fill:#FFB11C;}
	.st8{opacity:0.5;fill:#FFB11C;}
	.st9{fill:#FFFBE0;}
</style>
<g id="_x39_">
	<path class="st0" d="M53.1,42.5L50.6,41c-0.1-0.1-0.2-0.1-0.3,0L0.5,69.8c-0.2,0.1-0.2,0.4,0,0.5l2,1.1c0.1,0.1,0.2,0.1,0.3,0
		l1.7-1c0.1-0.1,0.2-0.1,0.3,0l19,11c0.2,0.1,0.2,0.4,0,0.5l-1,0.6c-0.2,0.1-0.2,0.4,0,0.5l2,1.1c0.1,0.1,0.2,0.1,0.3,0l49.8-28.7
		c0.2-0.1,0.2-0.4,0-0.5l-2-1.1c-0.1-0.1-0.2-0.1-0.3,0l-0.9,0.5c-0.1,0.1-0.2,0.1-0.3,0L51.8,43.2L53.1,42.5z M27.5,79.8L25.4,81
		c-0.1,0.1-0.2,0.1-0.3,0l-19-11c-0.2-0.1-0.2-0.4,0-0.5l2.1-1.2c0.1-0.1,0.2-0.1,0.3,0l19,11C27.7,79.4,27.7,79.7,27.5,79.8z"/>
	<g>
		<g>
			<g>
				<path class="st1" d="M2.9,68l-1.4-1.1c-0.3-0.2-0.2-0.8,0.2-1.3L50.8,0.5c0.3-0.4,0.8-0.6,1-0.4l0.8,0.4c0.2,0.2,1,1.5,0.7,1.9
					L4.3,68.3C4,68.8,3.2,68.2,2.9,68z"/>
				<path class="st2" d="M3.7,68.4l-1.4-1.1C2,67.1,2,66.5,2.4,66L51.5,0.9c0.3-0.4,0.8-0.6,1-0.4l1.6,1.2c0.2,0.2,0.2,0.7-0.1,1.1
					L4.9,67.9C4.5,68.4,4,68.6,3.7,68.4z"/>
			</g>
			<path class="st1" d="M51.3,37.5l-0.7,2.7c-0.1,0.5-0.6,1.1-1.1,1.2L1.2,54.3c-0.1,0-0.9-0.5-1-0.5C0,53.7-0.1,53.4,0,53.1
				l0.8-2.8c0.1-0.5,0.6-1,1-1.1l48.9-12.4c0.2,0,0.3,0,0.4,0c0.2,0.1,1,0.6,1,0.6C52.2,37.5,51.4,37.2,51.3,37.5z"/>
			<path class="st2" d="M52.2,38l-0.7,2.7c-0.1,0.5-0.6,1.1-1.1,1.2L1.5,54.3C1,54.4,0.8,54.1,1,53.6l0.8-2.8c0.1-0.5,0.6-1,1-1.1
				l48.9-12.4C52.1,37.2,52.4,37.5,52.2,38z"/>
		</g>
		<path class="st3" d="M19.3,47.1c0,0.7-0.5,1.5-1.2,1.9c-0.7,0.4-1.2,0.2-1.2-0.5s0.5-1.5,1.2-1.9C18.8,46.2,19.3,46.5,19.3,47.1z"
			/>
		<path class="st4" d="M18.8,47.4c0,0.4-0.3,0.9-0.7,1.1c-0.4,0.2-0.7,0.1-0.7-0.3c0-0.4,0.3-0.9,0.7-1.1
			C18.5,46.9,18.8,47,18.8,47.4z"/>
	</g>
	<g>
		<path class="st5" d="M27.8,80.4c-0.2,0-0.3,0-0.4-0.1L4,67.1c-0.4-0.2-0.6-0.8-0.3-1.2c0.2-0.4,0.8-0.6,1.2-0.3l23.4,13.2
			c0.4,0.2,0.6,0.8,0.3,1.2C28.5,80.2,28.2,80.4,27.8,80.4z"/>
		<path class="st5" d="M27.8,80c0.1,0,0.2,0,0.2-0.1c0.1-0.1,0-0.2-0.1-0.3L3.7,65.8c0,0,0,0,0,0c-0.1,0.1-0.1,0.3-0.1,0.5L27.7,80
			C27.8,80,27.8,80,27.8,80z"/>
	</g>
	<g>
		<path class="st2" d="M73.1,53.9c-0.2,0-0.3,0-0.4-0.1L49.2,40.6c-0.4-0.2-0.6-0.8-0.3-1.2c0.2-0.4,0.8-0.6,1.2-0.3l23.4,13.2
			c0.4,0.2,0.6,0.8,0.3,1.2C73.7,53.7,73.4,53.9,73.1,53.9z"/>
	</g>
	<path class="st6" d="M62.8,8.4L52.6,2.8c0,0-16.5,26.3-32.8,39.4c-2.3,1.8-4.8,3.3-7.3,4.9c-1.5,0.9-5.5,3-7.6,4.1
		c8.2,4.3,16.6,8,24.2,13.3c6-3,22.2-13.7,46.2-49.2L62.8,8.4z"/>
	<path class="st7" d="M3.2,52.9c0.5,0.5,22.8,11.8,23.1,12c0,0,18.1-4.9,48.7-50.3L62.4,7.7L52.2,2.1c0,0-16.5,26.3-32.8,39.4
		c-2.3,1.8-4.8,3.3-7.3,4.9c-2,1.2-8.3,4.5-8.8,4.8C2.9,51.5,2.6,52.4,3.2,52.9z"/>
	<path class="st8" d="M3.3,51.3c-0.4,0.2-0.7,1.2-0.1,1.7c0.5,0.5,22.8,11.8,23.1,12c0,0-0.5-0.3,1-1C27.3,63.9,3.4,51.2,3.3,51.3z"
		/>
	<path class="st9" d="M43.4,53c-0.5,0.4-1,0.9-1.4,1.3L19.2,41.7c0.1-0.1,0.2-0.1,0.2-0.2c0.4-0.3,0.9-0.7,1.3-1.1L43.4,53z
		 M24.4,37.2c-0.5,0.4-0.9,0.9-1.4,1.3L45.6,51c0.4-0.4,0.9-0.9,1.4-1.3L24.4,37.2z M27.8,33.8c-0.4,0.5-0.9,0.9-1.3,1.4L49,47.6
		c0.4-0.4,0.9-0.9,1.3-1.4L27.8,33.8z M16.7,43.6c-0.6,0.4-1.1,0.8-1.7,1.1l23.3,12.8c0.5-0.4,1-0.8,1.5-1.2L16.7,43.6z M31,30.3
		c-0.4,0.5-0.8,0.9-1.3,1.4l22.5,12.4c0.4-0.5,0.8-0.9,1.3-1.4L31,30.3z M31.5,62.3l-6.8-3.7L7.3,49.1c-0.7,0.4-1.3,0.7-1.9,1
		l18.4,10.1l5.8,3.2C30.2,63.1,30.8,62.8,31.5,62.3z M12.2,46.4C12.2,46.4,12.2,46.4,12.2,46.4c-0.5,0.3-1.1,0.6-1.9,1.1l23.8,13.1
		c0.5-0.4,1.1-0.8,1.6-1.2L12.2,46.4z M42.9,15.6c-0.4,0.5-0.7,1-1.1,1.5l22.5,12.4c0.4-0.5,0.7-1,1.1-1.5L42.9,15.6z M45.7,11.8
		c-0.3,0.5-0.7,1-1.1,1.5l22.5,12.4c0.4-0.5,0.7-1,1.1-1.5L45.7,11.8z M48.3,8c-0.3,0.5-0.7,1-1,1.5L69.9,22c0.4-0.5,0.7-1,1.1-1.5
		L48.3,8z M50.9,4.1c-0.3,0.4-0.6,1-1,1.5l22.6,12.5c0.3-0.5,0.7-1,1-1.5L50.9,4.1z M40.1,19.4c-0.4,0.5-0.7,1-1.1,1.5l22.5,12.4
		c0.4-0.5,0.8-1,1.1-1.5L40.1,19.4z M34.2,26.7c-0.4,0.5-0.8,0.9-1.2,1.4l22.5,12.4c0.4-0.5,0.8-0.9,1.2-1.4L34.2,26.7z M37.2,23.1
		c-0.4,0.5-0.8,1-1.2,1.4l22.5,12.4c0.4-0.5,0.8-0.9,1.2-1.4L37.2,23.1z"/>
	<g>
		<g>
			<path class="st1" d="M74.8,51l-0.7,2.7c-0.1,0.5-0.6,1.1-1.1,1.2L24.7,67.8c-0.1,0-0.9-0.5-1-0.5c-0.2-0.1-0.3-0.4-0.2-0.7
				l0.8-2.8c0.1-0.5,0.6-1,1-1.1l48.9-12.4c0.2,0,0.3,0,0.4,0c0.2,0.1,1,0.6,1,0.6C75.7,51,74.9,50.8,74.8,51z"/>
			<path class="st2" d="M75.7,51.6L75,54.3c-0.1,0.5-0.6,1.1-1.1,1.2L25,67.8c-0.4,0.1-0.7-0.2-0.5-0.7l0.8-2.8c0.1-0.5,0.6-1,1-1.1
				l48.9-12.4C75.6,50.7,75.9,51,75.7,51.6z"/>
			<path class="st1" d="M26.4,81.5L25,80.4c-0.3-0.2-0.2-0.8,0.2-1.3L74.3,14c0.3-0.4,0.8-0.6,1-0.4L76,14c0.2,0.2,1,1.5,0.7,1.9
				L27.8,81.8C27.5,82.3,26.7,81.7,26.4,81.5z"/>
			<path class="st5" d="M27.2,81.9l-1.4-1.1c-0.3-0.2-0.2-0.8,0.2-1.3L75,14.4c0.3-0.4,0.8-0.6,1-0.4l1.6,1.2
				c0.2,0.2,0.2,0.7-0.1,1.1L28.4,81.4C28,81.9,27.5,82.1,27.2,81.9z"/>
		</g>
		<g>
			<path class="st3" d="M42.8,60.7c0,0.7-0.5,1.5-1.2,1.9c-0.7,0.4-1.2,0.2-1.2-0.5s0.5-1.5,1.2-1.9C42.3,59.8,42.8,60,42.8,60.7z"
				/>
			<path class="st4" d="M42.3,61c0,0.4-0.3,0.9-0.7,1.1c-0.4,0.2-0.7,0.1-0.7-0.3c0-0.4,0.3-0.9,0.7-1.1C42,60.4,42.3,60.6,42.3,61z
				"/>
		</g>
		<g>
			<path class="st3" d="M29.2,78.7c0,0.7-0.5,1.5-1.2,1.9c-0.7,0.4-1.2,0.2-1.2-0.5c0-0.7,0.5-1.5,1.2-1.9
				C28.7,77.8,29.2,78.1,29.2,78.7z"/>
			<path class="st4" d="M28.8,79c0,0.4-0.3,0.9-0.7,1.1c-0.4,0.2-0.7,0.1-0.7-0.3c0-0.4,0.3-0.9,0.7-1.1
				C28.4,78.5,28.8,78.6,28.8,79z"/>
		</g>
		<g>
			<path class="st3" d="M29.3,64.3c0,0.5-0.4,1.2-1,1.5c-0.5,0.3-1,0.1-1-0.4c0-0.5,0.4-1.2,1-1.5C28.9,63.6,29.3,63.8,29.3,64.3z"
				/>
			<path class="st4" d="M28.9,64.6c0,0.3-0.3,0.7-0.6,0.9c-0.3,0.2-0.6,0.1-0.6-0.2c0-0.3,0.3-0.7,0.6-0.9
				C28.6,64.2,28.9,64.3,28.9,64.6z"/>
		</g>
		<g>
			<path class="st3" d="M74.5,52.5c0,0.7-0.5,1.5-1.2,1.9c-0.7,0.4-1.2,0.2-1.2-0.5c0-0.7,0.5-1.5,1.2-1.9
				C74,51.6,74.5,51.8,74.5,52.5z"/>
			<path class="st4" d="M74,52.7c0,0.4-0.3,0.9-0.7,1.1c-0.4,0.2-0.7,0.1-0.7-0.3c0-0.4,0.3-0.9,0.7-1.1C73.7,52.2,74,52.3,74,52.7z
				"/>
		</g>
		<g>
			<path class="st3" d="M76.6,15.7c0,0.7-0.5,1.5-1.2,1.9c-0.7,0.4-1.2,0.2-1.2-0.5s0.5-1.5,1.2-1.9C76.1,14.8,76.6,15.1,76.6,15.7z
				"/>
			<path class="st4" d="M76.1,16c0,0.4-0.3,0.9-0.7,1.1c-0.4,0.2-0.7,0.1-0.7-0.3c0-0.4,0.3-0.9,0.7-1.1
				C75.8,15.5,76.1,15.6,76.1,16z"/>
		</g>
	</g>
</g>
</svg>
